<svg xmlns="http://www.w3.org/2000/svg" width="419.173" height="73" viewBox="0 0 419.173 73"><defs><style>.a{fill:#cbd3f7;}.b{fill:#2035e2;}.c{fill:#1e13b1;}.d{fill:#daa229;}</style></defs><g transform="translate(-2482.853 -6141.985)"><rect class="a" width="48.408" height="66.306" transform="translate(2482.853 6145.332)"/><g transform="translate(2504.485 6141.985)"><g transform="translate(0.773)"><g transform="translate(0 51.941)"><path class="b" d="M2575.467,6254.923a23.117,23.117,0,0,1-7.042,6.117,24.319,24.319,0,0,1-12.421,3.131l-11.708-.1v-9.146h-12.727v21.059h24.74a38.093,38.093,0,0,0,18.784-4.684,32.712,32.712,0,0,0,13.134-13.083c.581-1.048,1.089-2.124,1.561-3.213a10.678,10.678,0,0,0-1.244-.079Z" transform="translate(-2531.569 -6254.923)"/></g><path class="b" d="M2544.3,6153.744l11.708.1a26.167,26.167,0,0,1,12.727,3.156,22.026,22.026,0,0,1,6.837,6.064h12.977a10.763,10.763,0,0,0,1.293-.086,34.977,34.977,0,0,0-1.61-3.28,33.143,33.143,0,0,0-13.185-13.032,38,38,0,0,0-18.734-4.683h-24.74v21.082H2544.3Z" transform="translate(-2531.569 -6141.985)"/></g><circle class="b" cx="6.771" cy="6.771" r="6.771" transform="translate(46.787 29.801)"/><circle class="b" cx="6.771" cy="6.771" r="6.771" transform="translate(0 29.801)"/></g><g transform="translate(2570.602 6145.186)"><path class="b" d="M2719.757,6198.9h-27.942l-6.117,16.5H2673.65l27.063-66.452h9.639L2738.2,6215.4h-12.233Zm-23.633-10.565h19.325l-9.779-23.866Z" transform="translate(-2673.65 -6148.945)"/><path class="b" d="M2836.587,6215.4h-11.121v-55.656h-18.814v-10.8H2855.4v10.8h-18.814Z" transform="translate(-2745.483 -6148.945)"/><path class="b" d="M2951.4,6198.9h-27.944l-6.117,16.5h-12.048l27.063-66.452h9.639l27.851,66.452h-12.233Zm-23.633-10.565h19.323l-9.776-23.866Z" transform="translate(-2798.758 -6148.945)"/><path class="c" d="M3167.846,6170.214l-20.111,45.183h-4.356l-20.157-45.135-7.647,45.135H3103.99l11.261-66.452h10.288l19.926,44.487,20.064-44.487h10.428l11.074,66.452h-11.585Z" transform="translate(-2906.073 -6148.945)"/><path class="c" d="M3312.762,6148.945h10.891v55.7h26.6V6215.4h-37.49Z" transform="translate(-3018.829 -6148.945)"/></g><circle class="d" cx="5.391" cy="5.391" r="5.391" transform="translate(2749.391 6200.856)"/></g></svg>